<?xml version="1.0" standalone="no"?>
<!DOCTYPE svg PUBLIC "-//W3C//DTD SVG 20010904//EN"
 "http://www.w3.org/TR/2001/REC-SVG-20010904/DTD/svg10.dtd">
<svg version="1.0" xmlns="http://www.w3.org/2000/svg"
 width="700.000000pt" height="700.000000pt" viewBox="0 0 700.000000 700.000000"
 preserveAspectRatio="xMidYMid meet">
<metadata>
Created by potrace 1.11, written by Peter Selinger 2001-2013
</metadata>
<g transform="translate(0.000000,700.000000) scale(0.100000,-0.100000)"
fill="#000000" stroke="none">
<path d="M3438 6575 c-2 -1 -46 -5 -98 -9 -52 -4 -106 -8 -120 -10 -14 -3 -47
-7 -75 -11 -133 -16 -347 -66 -520 -120 -154 -49 -374 -153 -523 -246 -441
-278 -727 -660 -866 -1154 -14 -49 -28 -103 -31 -120 -45 -252 -49 -294 -49
-605 0 -264 8 -454 25 -575 5 -38 12 -88 15 -110 30 -231 105 -481 195 -653
74 -142 143 -236 251 -344 189 -188 376 -288 738 -393 276 -80 528 -168 542
-189 11 -16 28 -103 33 -171 3 -33 8 -188 10 -345 7 -349 9 -376 39 -525 15
-73 119 -377 136 -398 5 -6 401 154 419 169 2 2 -19 68 -48 147 -68 187 -80
262 -86 541 -6 267 -13 456 -21 506 -28 193 -85 351 -147 407 -84 76 -255 144
-642 257 -401 117 -484 155 -628 279 -187 162 -322 471 -361 832 -3 28 -8 69
-11 92 -21 187 -26 654 -8 798 69 543 308 923 753 1197 254 157 620 271 975
305 155 15 562 8 675 -11 14 -2 46 -7 71 -10 187 -26 450 -100 639 -181 357
-152 622 -394 700 -640 7 -22 14 -43 17 -47 3 -6 399 124 409 135 8 7 -44 144
-83 217 -120 229 -320 430 -588 592 -342 206 -743 329 -1255 384 -63 6 -476
14 -482 9z"/>
<path d="M1320 1803 c0 -5 -10 -9 -21 -9 -29 1 -36 -20 -9 -27 14 -3 24 1 31
15 6 11 8 22 5 26 -3 3 -6 1 -6 -5z"/>
<path d="M1180 1788 c-14 -5 -35 -12 -47 -14 -40 -8 -73 -23 -73 -34 0 -7 8
-7 23 1 25 14 79 20 72 8 -3 -4 2 -10 11 -13 11 -4 14 -1 9 13 -7 24 19 35 47
20 18 -10 20 -9 14 6 -3 10 7 3 23 -14 35 -37 46 -39 62 -8 11 20 11 21 -4 9
-20 -17 -62 2 -53 24 6 14 -18 15 -41 1 -6 -4 -13 -3 -15 2 -2 5 -14 4 -28 -1z"/>
<path d="M1336 1791 c-9 -15 1 -75 13 -79 9 -3 11 0 7 7 -4 7 -2 10 5 9 6 -2
14 3 16 10 3 7 -1 10 -10 6 -10 -4 -14 2 -14 20 l0 26 28 -33 c16 -17 29 -27
29 -21 0 5 -5 15 -10 20 -8 8 -7 14 3 22 11 9 13 5 13 -25 -1 -23 4 -38 13
-41 9 -3 11 0 6 9 -6 11 -5 12 6 2 7 -7 18 -13 24 -13 5 1 0 9 -13 20 -13 11
-21 23 -18 28 11 18 -14 35 -53 37 -23 1 -43 -1 -45 -4z"/>
<path d="M1445 1771 c1 -11 9 -29 19 -40 17 -18 7 -39 -13 -27 -4 3 -16 -3
-26 -14 -10 -11 -13 -20 -7 -20 6 0 14 5 17 11 4 6 13 8 21 5 7 -3 18 3 24 14
12 23 13 43 1 36 -5 -3 -12 1 -15 10 -9 24 -7 27 10 10 21 -22 33 -20 27 4 -3
11 -11 20 -18 20 -8 0 -20 2 -28 5 -9 4 -13 -1 -12 -14z"/>
<path d="M1185 1760 c-3 -5 1 -10 9 -10 9 0 16 5 16 10 0 6 -4 10 -9 10 -6 0
-13 -4 -16 -10z"/>
<path d="M1513 1756 c3 -7 0 -19 -6 -25 -6 -6 -11 -28 -12 -49 l-1 -38 86 2
c47 1 91 -3 98 -8 8 -7 12 -7 12 0 0 21 -28 29 -102 28 l-77 -2 5 31 c3 16 6
38 7 48 1 17 2 17 13 2 8 -11 14 -13 19 -5 5 8 12 5 22 -9 15 -22 40 -30 27
-9 -4 7 -3 8 4 4 6 -4 8 -14 5 -24 -6 -15 -5 -16 13 -2 18 14 18 13 -1 -9 -13
-16 -15 -22 -6 -19 15 4 50 51 35 46 -5 -1 -19 3 -31 10 -13 7 -23 10 -23 7 0
-4 -7 1 -16 9 -8 9 -19 14 -24 11 -5 -3 -11 -1 -15 5 -10 15 -38 12 -32 -4z"/>
<path d="M1203 1743 c-12 -8 -19 -21 -16 -29 7 -20 24 -17 21 4 -2 10 3 17 12
17 8 0 18 5 22 10 5 7 8 7 9 0 0 -5 2 -19 4 -30 2 -10 -1 -25 -7 -32 -7 -9 -7
-13 0 -13 6 0 14 5 17 10 5 8 11 7 21 -1 10 -9 14 -9 14 0 0 6 -7 14 -15 17
-21 8 -19 25 3 18 9 -3 4 5 -12 17 -37 29 -45 30 -73 12z"/>
<path d="M1030 1741 c0 -15 29 -33 41 -25 8 5 9 3 4 -6 -5 -8 -3 -11 6 -8 8 3
13 12 11 19 -2 8 0 11 4 7 4 -4 14 -2 23 5 14 11 14 10 2 -5 -8 -11 -9 -18 -3
-18 6 0 14 5 17 10 4 6 11 8 16 4 5 -3 7 -10 4 -15 -4 -5 -2 -9 4 -9 24 0 19
20 -9 35 -27 14 -33 14 -60 0 -27 -14 -31 -14 -36 0 -7 16 -24 21 -24 6z"/>
<path d="M1311 1722 c-11 -20 -4 -62 10 -62 11 0 12 27 2 33 -5 2 -2 2 5 1 14
-4 16 12 2 21 -6 4 -8 11 -5 16 4 5 4 9 1 9 -3 0 -10 -8 -15 -18z"/>
<path d="M1009 1728 c-6 -20 -3 -48 5 -45 6 2 10 12 10 21 -2 14 1 15 13 4 10
-8 11 -14 4 -16 -9 -3 -9 -7 0 -18 16 -20 29 -17 23 4 -5 14 -4 15 5 2 6 -8
11 -10 11 -5 0 6 6 3 13 -5 16 -20 50 -23 43 -3 -3 8 -1 24 6 36 10 20 10 21
-5 9 -9 -8 -21 -11 -27 -7 -5 3 -10 1 -10 -4 0 -17 -25 -13 -53 9 -23 18 -36
24 -38 18z"/>
<path d="M1224 1711 c15 -17 14 -18 -16 -16 -39 2 -68 -4 -68 -16 0 -11 27
-12 33 -1 2 4 2 1 1 -5 -4 -17 8 -17 24 -1 7 7 20 13 30 13 25 0 25 41 -1 42
-18 2 -18 1 -3 -16z"/>
<path d="M1360 1705 c-17 -18 -21 -28 -13 -36 12 -12 33 -4 33 13 0 6 -7 5
-17 -3 -14 -12 -14 -10 1 14 20 30 29 35 20 12 -5 -11 -1 -14 12 -9 16 5 16 4
4 -5 -12 -8 -13 -14 -3 -30 15 -24 -5 -45 -33 -34 -17 6 -18 5 -4 -13 11 -15
11 -16 0 -6 -19 17 -26 15 -26 -6 0 -14 8 -19 28 -19 15 0 25 4 22 8 -8 13 50
64 73 64 12 1 20 -2 17 -6 -2 -4 0 -10 5 -14 6 -3 7 -13 4 -23 -6 -15 -5 -16
13 -2 18 14 18 14 5 -2 -8 -11 -9 -18 -3 -18 6 0 13 4 17 10 3 5 11 7 18 4 7
-2 13 4 14 16 1 11 -2 20 -8 20 -5 0 -9 -4 -9 -10 0 -5 -5 -10 -11 -10 -5 0
-8 4 -5 9 3 5 -2 8 -12 7 -12 -1 -17 6 -16 27 1 22 -1 25 -13 16 -7 -7 -16 -9
-20 -6 -3 4 -12 2 -19 -4 -19 -15 -38 -1 -23 17 9 11 9 17 -1 29 -17 20 -23
19 -50 -10z"/>
<path d="M1529 1716 c0 -6 -2 -18 -4 -26 -2 -14 21 -17 78 -11 4 1 -2 11 -13
24 -22 23 -59 32 -61 13z m35 -26 c-6 -6 -10 -2 -11 12 -2 16 1 18 10 9 7 -7
8 -14 1 -21z"/>
<path d="M970 1712 c0 -5 -16 -16 -36 -25 -19 -10 -32 -22 -29 -28 4 -5 1 -16
-5 -24 -6 -8 -9 -19 -5 -25 9 -15 25 -12 19 4 -3 8 0 17 6 21 8 5 8 10 0 20
-8 9 -7 14 3 18 9 3 13 -5 11 -34 -2 -43 -1 -44 27 -28 15 7 24 7 35 -2 17
-14 19 2 2 19 -7 7 -17 8 -30 1 -12 -6 -18 -6 -18 1 0 5 6 11 13 12 6 0 17 2
22 2 6 1 16 5 23 10 7 4 19 2 27 -4 10 -8 15 -9 15 -2 0 13 -20 26 -40 27 -8
0 -16 6 -16 13 -1 6 -2 17 -3 22 -1 12 -21 14 -21 2z m16 -38 c10 -8 13 -13 6
-9 -7 4 -19 1 -27 -5 -11 -9 -15 -9 -15 -1 0 6 6 11 13 11 8 0 7 4 -3 10 -8 5
-10 10 -4 10 5 0 19 -7 30 -16z"/>
<path d="M1650 1685 c-11 -13 -10 -14 1 -10 8 3 27 -7 43 -22 21 -19 28 -22
23 -10 -4 10 -3 16 2 12 6 -3 10 -13 10 -23 2 -64 7 -92 16 -89 12 5 13 48 1
65 -5 7 -3 18 5 29 8 9 9 14 3 10 -7 -4 -14 0 -18 8 -3 8 -12 15 -20 15 -7 0
-16 7 -20 15 -7 19 -30 19 -46 0z"/>
<path d="M1202 1668 c-15 -15 -15 -38 -1 -38 5 0 8 4 4 9 -9 16 15 24 31 10
10 -8 12 -15 4 -23 -13 -13 -13 -36 1 -36 5 0 8 4 4 9 -8 15 14 24 29 12 13
-11 26 -5 26 11 0 5 -4 6 -10 3 -5 -3 -17 4 -27 15 -26 31 -48 41 -61 28z"/>
<path d="M1265 1670 c-4 -7 0 -19 9 -28 9 -9 16 -11 16 -5 0 6 -6 14 -12 16
-10 4 -10 6 -1 6 7 1 17 -8 23 -20 8 -14 17 -18 28 -13 9 4 28 7 42 8 45 2 26
21 -21 21 -26 0 -53 6 -62 13 -11 10 -17 10 -22 2z"/>
<path d="M1067 1650 c-13 -19 -19 -21 -31 -11 -8 7 -20 10 -26 6 -15 -9 -1
-27 17 -21 10 4 8 -3 -6 -20 -16 -21 -18 -30 -10 -40 6 -8 16 -14 21 -14 6 0
5 7 -2 16 -11 13 -10 19 8 36 17 18 23 19 36 8 18 -14 22 0 5 17 -8 8 -7 13 2
18 7 5 10 4 5 -3 -3 -6 -1 -14 5 -17 17 -11 18 -2 5 24 l-13 24 -16 -23z"/>
<path d="M1141 1642 c-9 -16 -6 -19 19 -19 25 0 28 3 19 19 -5 10 -14 18 -19
18 -5 0 -14 -8 -19 -18z"/>
<path d="M875 1639 c-11 -17 1 -21 15 -4 8 9 8 15 2 15 -6 0 -14 -5 -17 -11z"/>
<path d="M1110 1640 c0 -5 5 -10 10 -10 6 0 10 5 10 10 0 6 -4 10 -10 10 -5 0
-10 -4 -10 -10z"/>
<path d="M1215 1641 c8 -14 -30 -32 -49 -25 -11 4 -16 1 -16 -10 0 -9 5 -16
11 -16 5 0 7 6 3 13 -4 6 5 1 19 -12 26 -23 38 -18 17 7 -5 7 -3 6 6 -2 11
-10 13 -19 7 -32 -12 -27 -10 -57 4 -61 8 -3 11 4 8 18 -2 12 0 29 5 38 6 10
10 11 10 4 0 -7 5 -13 10 -13 6 0 9 3 9 8 -4 25 2 32 18 23 12 -6 21 -5 31 7
7 10 11 11 7 4 -4 -7 -2 -19 5 -27 7 -9 8 -15 0 -20 -5 -3 -10 -11 -10 -17 0
-7 4 -7 13 1 8 6 24 9 36 6 17 -3 21 -1 17 11 -3 9 -6 20 -6 25 0 5 -5 9 -11
9 -6 0 -9 -7 -5 -15 3 -8 1 -15 -3 -15 -11 0 -25 30 -22 48 2 15 -21 16 -36 1
-8 -8 -13 -8 -17 0 -4 6 -12 11 -17 11 -6 0 -8 -4 -4 -9 11 -19 -18 -24 -32
-5 -11 15 -11 19 2 27 16 8 12 27 -6 27 -6 0 -8 -4 -4 -9z"/>
<path d="M1430 1640 c0 -5 -10 -18 -22 -30 -12 -11 -18 -20 -14 -20 5 0 2 -7
-5 -16 -11 -14 -10 -19 10 -35 13 -10 27 -16 32 -13 15 9 10 22 -8 20 -13 -1
-18 7 -18 26 -1 15 3 24 7 21 5 -2 6 -13 3 -24 -4 -11 -2 -19 4 -19 6 0 11 6
11 13 0 7 8 17 19 24 15 10 20 8 30 -11 7 -12 11 -28 9 -35 -2 -8 2 -15 8 -18
7 -2 10 6 9 22 -2 14 1 25 7 25 5 0 6 -10 2 -22 -6 -20 -5 -21 9 -9 9 7 14 17
11 22 -3 5 0 9 5 9 6 0 11 -5 11 -12 0 -6 6 -4 13 6 8 11 19 15 30 10 14 -5
15 -9 6 -21 -7 -7 -19 -11 -27 -8 -10 3 -12 0 -9 -10 4 -8 2 -17 -3 -20 -6 -4
-10 -12 -10 -18 0 -7 17 6 38 29 34 36 44 40 85 40 25 0 44 -3 41 -8 -3 -4 -1
-8 5 -8 11 0 7 51 -4 70 -4 6 -13 9 -20 6 -7 -2 -18 1 -24 7 -9 9 -14 8 -21
-3 -9 -15 -4 -30 10 -30 5 0 7 8 4 18 -5 16 -5 16 6 0 6 -9 16 -15 24 -12 7 3
13 -1 13 -8 0 -10 -16 -13 -54 -12 -29 0 -56 4 -60 7 -3 4 -13 2 -22 -3 -10
-5 -23 -5 -31 0 -9 5 -19 5 -27 -2 -16 -13 -46 9 -39 28 3 8 -3 18 -14 24 -23
13 -30 13 -30 0z m18 -36 c-11 -11 -18 -13 -23 -5 -3 6 -1 10 6 9 6 -2 14 3
17 11 3 9 0 11 -8 6 -9 -6 -11 -4 -5 4 5 9 10 10 18 2 8 -8 7 -16 -5 -27z"/>
<path d="M1568 1622 c3 -9 1 -13 -5 -9 -5 3 -10 0 -10 -8 0 -10 5 -11 17 -5
10 5 20 7 23 4 3 -3 17 -7 31 -8 21 -3 24 -1 15 10 -6 7 -8 17 -5 22 3 5 -12
9 -33 9 -31 0 -38 -3 -33 -15z m45 -6 c4 -10 1 -13 -9 -9 -7 3 -14 9 -14 14 0
14 17 10 23 -5z"/>
<path d="M837 1607 c-9 -12 -17 -24 -17 -28 0 -13 18 -20 24 -10 5 7 71 8 71
1 0 -1 13 -3 28 -5 25 -3 27 -2 16 13 -8 9 -9 14 -5 10 5 -4 16 -2 25 4 13 10
14 10 4 -2 -10 -11 -9 -16 5 -27 16 -12 16 -13 -2 -6 -14 5 -17 3 -11 -7 5 -8
2 -18 -9 -26 -10 -7 -13 -15 -7 -18 5 -4 16 3 25 15 8 12 19 18 25 14 15 -9
14 8 -1 23 -7 7 -13 20 -13 30 0 11 -7 16 -20 14 -11 -2 -31 -5 -44 -7 -14 -2
-36 5 -51 15 -25 18 -26 18 -43 -3z m23 -6 c0 -5 -7 -12 -16 -15 -14 -5 -15
-4 -4 9 14 17 20 19 20 6z"/>
<path d="M1750 1622 c0 -5 3 -12 7 -16 14 -14 13 -53 -1 -65 -12 -10 -20 -10
-38 1 -42 24 -80 17 -119 -21 -25 -25 -35 -42 -32 -56 10 -44 10 -91 1 -102
-14 -17 2 -16 25 1 18 14 24 32 7 21 -5 -3 -10 -1 -10 4 0 15 17 14 26 -1 4
-6 -1 -17 -11 -25 -15 -10 -15 -13 -4 -13 8 0 20 5 26 11 8 8 13 8 17 0 4 -6
12 -11 18 -11 6 0 -4 15 -23 34 -18 19 -37 32 -41 30 -4 -3 -8 0 -8 5 0 6 5
11 10 11 6 0 10 5 10 10 0 5 -5 9 -12 8 -20 -5 -17 37 4 63 15 18 17 19 10 4
-5 -11 -7 -26 -5 -32 3 -7 0 -13 -6 -13 -6 0 -11 -4 -11 -10 0 -12 22 -9 32 5
4 6 5 17 2 27 -2 9 0 19 6 23 6 3 7 11 4 17 -5 7 -2 8 5 3 9 -5 10 -10 2 -18
-6 -6 -11 -16 -11 -21 1 -6 10 0 21 13 16 19 17 26 7 33 -9 5 -4 7 12 6 31 -4
41 -17 34 -42 -7 -20 -1 -18 48 17 21 16 30 18 41 9 8 -7 17 -9 20 -5 9 9 9
23 0 22 -24 -4 -31 4 -28 28 1 15 1 33 -2 40 -6 14 -33 18 -33 5z"/>
<path d="M1098 1600 c-7 -11 -16 -20 -21 -20 -4 0 -6 4 -2 9 10 18 -17 24 -33
7 -14 -14 -14 -17 3 -36 18 -20 18 -21 -3 -42 -18 -19 -24 -20 -34 -9 -11 11
-10 13 0 7 14 -8 42 10 42 27 0 5 -9 2 -20 -8 -11 -10 -20 -14 -20 -10 0 5 -9
-1 -21 -14 -17 -18 -23 -20 -36 -9 -14 11 -15 11 -11 -2 3 -8 12 -14 21 -14 9
1 13 -4 10 -12 -7 -18 -5 -19 -42 17 -26 24 -35 28 -47 18 -16 -13 -19 -39 -3
-39 5 0 8 4 4 9 -9 16 15 24 31 10 10 -8 12 -15 4 -23 -16 -16 -12 -30 5 -16
12 10 20 9 40 -4 28 -18 45 -21 45 -5 0 5 -4 8 -9 4 -15 -8 -24 14 -12 29 6 7
7 17 3 21 -4 5 -1 5 6 0 10 -5 11 -10 3 -18 -6 -6 -11 -16 -11 -21 0 -6 21 11
47 38 l47 49 -22 17 c-18 15 -19 20 -8 29 11 9 14 8 12 -5 0 -10 8 -18 21 -20
16 -3 21 0 17 10 -11 28 19 28 42 0 13 -16 23 -23 24 -16 0 7 5 10 11 6 8 -5
8 -8 0 -14 -9 -5 -8 -10 3 -19 12 -11 15 -9 13 11 -2 27 -17 46 -34 41 -6 -2
-17 5 -23 16 -14 26 -26 27 -42 1z"/>
<path d="M1795 1590 c-3 -5 -1 -18 4 -27 6 -10 11 -14 11 -9 0 5 7 3 15 -4 13
-11 13 -14 -2 -25 -12 -9 -22 -10 -29 -4 -6 5 -19 7 -28 3 -18 -7 -22 -24 -6
-24 6 0 10 5 10 10 0 6 11 3 24 -5 21 -14 24 -14 29 0 7 17 27 21 27 4 0 -5
-4 -7 -10 -4 -5 3 -10 2 -10 -3 0 -5 15 -17 33 -26 17 -8 27 -16 20 -16 -7 0
-17 -9 -23 -19 -8 -17 -7 -20 10 -18 11 1 18 7 16 13 -2 6 0 16 5 21 9 9 -53
105 -72 111 -5 2 -7 8 -4 12 3 5 1 11 -4 14 -5 4 -12 2 -16 -4z"/>
<path d="M1110 1580 c0 -5 5 -10 10 -10 6 0 10 -4 10 -9 0 -5 -11 -8 -25 -7
-13 2 -24 0 -23 -3 2 -19 -5 -32 -35 -62 -19 -19 -32 -39 -30 -46 2 -6 -5 -16
-15 -22 -32 -17 -34 -38 -3 -38 17 0 28 6 28 14 0 8 -7 11 -14 9 -8 -4 -11 -1
-8 5 4 6 13 8 21 5 11 -4 13 1 10 20 -4 19 -2 23 7 15 7 -5 18 -6 26 -2 7 5
24 7 37 5 16 -1 24 2 21 9 -4 14 -37 16 -55 3 -8 -6 -17 -5 -25 3 -9 10 -8 11
7 5 13 -5 17 -4 12 4 -3 6 -2 13 3 16 5 4 12 2 16 -3 7 -12 35 -3 35 11 0 5
-4 6 -10 3 -21 -13 -32 7 -14 26 22 24 34 16 30 -22 -2 -16 1 -32 6 -35 5 -3
7 -13 4 -21 -4 -9 -1 -13 6 -10 7 2 11 11 9 18 -1 8 -4 31 -6 52 -3 34 -2 37
10 21 7 -10 10 -25 7 -33 -4 -9 -1 -12 7 -7 16 10 41 -12 34 -30 -4 -10 0 -12
11 -8 20 8 10 25 -44 79 -22 22 -40 43 -40 47 0 5 -4 8 -10 8 -5 0 -10 -4 -10
-10z"/>
<path d="M788 1556 c-28 -38 -79 -138 -74 -144 4 -3 6 1 6 8 0 7 2 11 5 8 10
-10 -7 -38 -19 -31 -6 3 -8 3 -4 -2 4 -4 3 -13 -2 -20 -5 -6 -11 -20 -13 -31
-1 -10 -6 -25 -10 -31 -5 -8 -3 -13 3 -13 6 0 9 -4 5 -9 -3 -5 -1 -12 4 -15 5
-4 8 5 6 19 -2 24 -1 25 16 9 11 -10 19 -12 19 -6 0 7 -9 17 -19 24 -19 11
-18 13 11 54 17 24 27 48 23 54 -6 9 -2 9 13 1 28 -15 32 -14 26 4 -4 8 -10
12 -15 9 -5 -3 -6 3 -2 13 6 16 5 16 -10 4 -11 -9 -17 -10 -17 -2 0 10 13 15
33 12 4 0 7 4 7 9 0 6 -4 10 -10 10 -5 0 -1 13 8 30 9 16 21 30 26 30 5 0 3
-7 -4 -16 -11 -12 -10 -18 5 -32 17 -16 17 -16 12 1 -8 21 2 49 14 41 6 -3 16
0 24 6 12 10 15 10 15 -1 0 -10 3 -10 12 -1 9 9 16 8 30 -5 13 -12 18 -13 18
-3 0 7 3 11 6 7 3 -3 3 -11 -1 -17 -5 -8 -13 -6 -26 6 -12 11 -19 13 -19 5 0
-7 -7 -10 -18 -7 -13 4 -18 1 -18 -14 0 -24 9 -26 26 -5 9 11 17 12 31 5 19
-11 59 5 59 23 0 4 -4 5 -10 2 -5 -3 -10 -1 -10 5 0 7 -7 10 -15 7 -8 -4 -17
-2 -20 2 -6 10 -61 9 -71 -2 -4 -4 -14 -1 -23 7 -14 12 -18 11 -33 -8z"/>
<path d="M1445 1571 c-3 -6 -1 -20 6 -32 6 -13 7 -19 1 -15 -6 3 -13 2 -17 -4
-4 -6 -13 -7 -23 -1 -25 12 -87 8 -84 -7 3 -19 -12 -14 -26 8 -7 12 -17 18
-23 14 -6 -3 -4 -11 7 -18 9 -7 14 -18 10 -25 -5 -7 0 -10 16 -7 13 2 22 10
22 19 -1 13 2 14 17 4 11 -7 19 -15 19 -19 0 -5 5 -8 11 -8 5 0 7 5 4 10 -13
21 7 31 26 14 15 -13 19 -14 19 -3 0 12 2 12 9 0 6 -9 27 -15 55 -16 51 -1 68
-10 37 -20 -12 -3 -19 -10 -16 -15 3 -5 11 -7 19 -4 7 3 13 -1 13 -9 0 -12
-48 -16 -86 -6 -7 2 -15 -1 -18 -7 -4 -11 7 -14 63 -15 20 -1 35 -9 44 -23 12
-20 12 -20 -5 -6 -16 13 -18 13 -13 0 2 -8 11 -15 19 -15 19 0 16 90 -5 123
-5 8 -4 18 2 24 6 6 8 17 5 25 -4 11 -10 10 -28 -7 -24 -23 -71 -35 -79 -21
-3 4 6 7 19 5 17 -1 23 1 18 9 -5 7 -8 21 -8 31 0 22 -20 33 -30 17z m85 -61
c0 -5 -5 -10 -11 -10 -5 0 -7 5 -4 10 3 6 8 10 11 10 2 0 4 -4 4 -10z"/>
<path d="M1261 1563 c4 -25 -2 -35 -14 -25 -10 9 -13 3 -14 -28 0 -22 3 -40 8
-40 5 0 8 6 7 13 -2 7 6 11 20 10 12 -2 22 2 22 7 0 6 -7 10 -15 10 -8 0 -15
4 -15 9 0 5 7 14 15 21 8 7 15 16 15 21 0 5 -7 9 -15 9 -8 0 -14 -3 -14 -7z"/>
<path d="M1296 1555 c-3 -8 -1 -15 4 -15 13 0 22 18 11 24 -5 3 -11 -1 -15 -9z"/>
<path d="M1570 1560 c0 -5 5 -10 10 -10 6 0 10 5 10 10 0 6 -4 10 -10 10 -5 0
-10 -4 -10 -10z"/>
<path d="M1100 1525 c-8 -9 -8 -15 -2 -15 12 0 26 19 19 26 -2 2 -10 -2 -17
-11z"/>
<path d="M820 1520 c0 -5 7 -10 15 -10 8 0 15 5 15 10 0 6 -7 10 -15 10 -8 0
-15 -4 -15 -10z"/>
<path d="M1669 1523 c-1 -5 -2 -22 -4 -40 -2 -29 -1 -31 16 -22 24 12 24 25 2
38 -17 10 -17 10 0 11 9 0 17 5 17 10 0 11 -29 14 -31 3z"/>
<path d="M784 1476 c2 -20 6 -39 10 -43 3 -4 -1 -15 -11 -25 -9 -10 -11 -18
-6 -18 17 0 35 28 27 41 -5 8 -3 9 6 4 8 -5 11 -3 8 6 -3 8 -11 13 -18 11 -11
-3 -11 0 0 13 11 13 11 19 -3 32 -14 14 -15 13 -13 -21z"/>
<path d="M1390 1503 c0 -17 28 -35 42 -27 10 5 10 4 1 -6 -9 -10 -15 -10 -26
-2 -8 7 -17 9 -20 5 -4 -3 -13 0 -21 6 -24 20 -34 5 -31 -44 1 -25 -1 -48 -6
-51 -5 -2 -22 2 -39 11 -16 8 -30 12 -29 8 1 -15 18 -48 18 -37 1 6 12 9 26 6
14 -2 33 2 42 9 9 8 14 9 10 3 -8 -14 34 -27 46 -15 5 5 2 20 -7 33 -9 14 -13
28 -9 31 3 4 2 7 -4 7 -20 0 -23 -14 -7 -38 8 -13 13 -26 11 -29 -8 -7 -31 38
-34 64 -1 19 3 21 27 18 16 -2 34 -6 39 -10 6 -3 15 3 21 14 7 13 7 22 0 26
-5 3 -10 3 -10 -1 0 -4 -9 1 -20 11 -11 10 -20 13 -20 8z"/>
<path d="M820 1481 c-7 -14 -7 -20 2 -23 16 -6 -8 -64 -29 -72 -21 -8 -33 2
-26 21 4 11 3 14 -5 9 -7 -4 -12 -13 -12 -21 0 -7 -7 -15 -15 -19 -9 -3 -12
-12 -8 -22 4 -12 3 -15 -5 -10 -7 4 -12 2 -12 -3 0 -6 4 -11 9 -11 5 0 12 -8
15 -18 8 -24 45 -24 43 0 -1 20 -17 25 -17 6 0 -7 -5 -5 -11 5 -7 13 -7 22 0
31 6 7 7 17 3 21 -4 5 -1 5 6 0 10 -5 11 -10 3 -18 -6 -6 -11 -16 -11 -21 1
-6 12 3 25 19 14 17 25 26 25 20 0 -5 5 -3 11 5 9 13 10 13 6 0 -2 -8 -10 -14
-16 -12 -13 3 -15 -14 -2 -23 5 -3 17 5 25 17 12 17 13 25 3 37 -10 14 -10 14
4 3 14 -10 18 -10 23 4 8 22 8 24 -6 20 -7 -1 -10 -1 -5 1 4 3 5 9 1 14 -3 5
2 12 10 15 12 5 13 10 5 25 -12 24 -26 24 -39 0z m25 0 c3 -5 2 -12 -3 -15 -5
-3 -9 1 -9 9 0 17 3 19 12 6z"/>
<path d="M1720 1490 c-18 -11 -23 -80 -4 -73 8 3 11 10 7 16 -3 6 -1 7 5 3 7
-4 12 -3 12 3 0 5 -6 14 -14 18 -12 7 -11 10 2 23 14 13 15 13 10 -1 -5 -12 1
-16 22 -16 21 0 27 4 23 16 -4 14 -3 14 6 1 5 -8 13 -11 17 -7 4 4 4 10 1 13
-10 10 -72 13 -87 4z"/>
<path d="M895 1480 c3 -5 -6 -15 -20 -23 l-26 -13 21 -19 c22 -20 28 -8 8 15
-11 12 -10 12 4 1 12 -9 15 -22 12 -44 -3 -18 -6 -44 -7 -59 0 -15 -5 -24 -10
-21 -5 3 -7 0 -5 -8 3 -9 20 -14 51 -13 49 1 47 3 38 -61 -1 -5 -6 -2 -12 8
-5 9 -7 22 -4 27 3 6 2 10 -3 10 -17 0 -21 -13 -11 -31 6 -11 6 -19 0 -19 -12
0 -23 29 -15 41 3 5 1 9 -5 9 -16 0 -23 -20 -12 -34 7 -9 7 -16 0 -23 -8 -8
-1 -10 25 -9 23 2 42 10 50 22 16 24 14 86 -4 92 -7 3 -10 0 -7 -5 3 -5 -10
-9 -28 -10 -32 -1 -34 1 -29 31 3 17 5 40 5 51 0 14 2 16 8 7 6 -11 10 -10 15
3 3 9 3 21 0 27 -3 5 3 4 15 -4 18 -11 19 -13 4 -19 -13 -4 -14 -7 -4 -14 8
-4 17 -2 22 6 13 21 11 27 -11 39 -22 12 -44 5 -35 -11 4 -5 2 -9 -2 -9 -5 0
-14 9 -20 19 -10 16 -9 20 3 25 16 6 10 26 -7 26 -6 0 -8 -4 -4 -10z"/>
<path d="M1161 1474 c9 -11 8 -18 -2 -31 -13 -15 -12 -15 8 -5 14 8 24 9 28 2
3 -5 3 -11 -2 -11 -31 -5 -40 -4 -58 6 -11 6 -31 9 -45 8 -14 -2 -30 -4 -37
-5 -15 -2 12 -58 28 -58 6 0 6 6 -1 19 -13 25 -13 28 4 28 8 0 12 -8 9 -21 -4
-20 -4 -20 11 -2 8 10 13 23 9 29 -3 6 -1 7 5 3 6 -4 9 -12 6 -19 -7 -19 66
-14 80 5 10 14 14 14 31 2 10 -8 13 -14 6 -14 -7 0 -10 -4 -7 -8 3 -5 -1 -9
-9 -10 -8 -1 -22 -3 -30 -4 -9 -1 -13 -8 -10 -18 4 -11 -3 -20 -20 -28 -14 -6
-25 -16 -25 -21 0 -5 20 2 45 16 45 25 61 41 28 28 -15 -5 -16 -4 -5 6 9 10
15 10 24 1 21 -21 26 -13 23 31 -3 47 2 61 25 65 11 2 11 -1 -2 -11 -25 -20
-22 -30 3 -16 16 8 24 8 33 -1 6 -6 7 -11 1 -10 -21 4 -45 0 -45 -8 0 -7 42
-32 54 -32 2 0 2 19 1 42 -1 33 -6 42 -21 43 -10 2 -28 6 -38 10 -13 6 -17 5
-12 -3 4 -7 -6 -18 -24 -27 -30 -15 -32 -14 -34 15 -1 8 -11 16 -24 16 -18 1
-20 -1 -11 -12z m154 -64 c3 -6 -1 -7 -9 -4 -18 7 -21 14 -7 14 6 0 13 -4 16
-10z"/>
<path d="M1628 1457 c-15 -32 -15 -33 16 -63 19 -19 39 -29 51 -27 11 2 28 5
38 6 10 1 23 9 28 17 9 13 10 13 6 -1 -3 -9 0 -22 6 -28 16 -16 32 -14 18 2
-6 8 -9 23 -7 34 4 18 0 21 -28 19 -18 -2 -38 -6 -44 -10 -6 -3 -13 -2 -17 4
-3 5 -11 10 -17 10 -6 0 -6 -6 2 -15 7 -9 19 -14 27 -11 8 3 11 2 8 -3 -7 -12
-44 -10 -42 2 1 5 -4 12 -12 15 -9 3 -11 0 -6 -8 5 -9 4 -11 -4 -6 -6 4 -9 11
-6 16 3 4 -1 11 -7 14 -7 3 -2 3 12 0 24 -7 24 -6 7 20 -10 14 -13 26 -7 26 5
0 10 5 10 10 0 21 -17 9 -32 -23z m117 -57 c3 -5 1 -10 -4 -10 -6 0 -11 5 -11
10 0 6 2 10 4 10 3 0 8 -4 11 -10z"/>
<path d="M1807 1468 c-11 -12 -25 -17 -38 -13 -15 5 -19 2 -19 -14 0 -12 5
-21 11 -21 6 0 8 7 5 17 -6 15 -5 15 11 1 34 -28 46 -32 39 -12 -8 26 6 45 24
34 13 -8 12 -10 -2 -10 -10 0 -18 -4 -18 -10 0 -16 27 -11 34 6 8 22 8 22 -11
32 -13 6 -23 3 -36 -10z"/>
<path d="M1446 1455 c-13 -20 -20 -23 -35 -16 -13 7 -18 6 -18 -4 0 -8 5 -11
10 -8 6 4 8 0 4 -10 -3 -9 -2 -19 4 -23 5 -3 7 -13 5 -22 -4 -11 4 -23 23 -34
29 -16 41 -14 41 6 0 6 -5 4 -11 -4 -9 -13 -10 -12 -5 3 5 15 2 17 -15 12 -16
-5 -20 -3 -17 6 3 8 2 21 -3 30 -9 19 17 63 32 53 18 -11 61 -12 50 -1 -5 5
-7 16 -4 23 3 8 0 14 -6 14 -10 0 -15 -14 -12 -33 1 -5 -3 -5 -9 -2 -6 4 -9
13 -6 21 9 23 -11 16 -28 -11z"/>
<path d="M1670 1440 c0 -5 7 -10 15 -10 8 0 15 5 15 10 0 6 -7 10 -15 10 -8 0
-15 -4 -15 -10z"/>
<path d="M1900 1435 c12 -14 8 -17 -16 -14 -10 1 -23 -24 -18 -33 3 -4 10 -8
15 -8 6 0 7 5 3 12 -4 6 -3 8 4 4 5 -3 12 -1 14 6 3 7 7 5 11 -6 4 -9 3 -15
-1 -12 -5 3 -9 -8 -9 -23 0 -19 5 -28 15 -27 18 1 25 -33 10 -51 -7 -9 -6 -14
6 -19 15 -6 15 -8 -4 -21 -11 -8 -20 -19 -20 -25 0 -6 9 -3 20 7 11 10 20 13
20 7 0 -7 -5 -12 -10 -12 -7 0 -7 -6 0 -19 12 -24 13 -42 1 -22 -6 9 -11 10
-15 2 -4 -6 0 -14 9 -17 13 -6 14 -8 3 -15 -20 -13 -31 -11 -25 5 3 8 -1 20
-9 27 -13 10 -14 8 -10 -16 3 -16 0 -35 -6 -42 -11 -13 3 -19 16 -6 11 11 36
12 36 2 0 -6 -7 -9 -16 -7 -10 2 -19 -3 -21 -10 -3 -8 2 -10 14 -6 13 4 15 3
4 -4 -11 -8 -11 -10 0 -14 8 -3 11 -8 8 -12 -3 -3 -20 8 -38 24 -17 17 -36 28
-41 25 -15 -9 -12 -25 3 -19 18 6 42 -22 27 -31 -5 -3 -10 -11 -10 -17 0 -7 4
-7 13 0 7 6 22 9 34 6 18 -5 21 0 28 43 11 67 14 173 5 173 -4 0 -5 11 -2 25
2 14 -3 36 -13 51 -9 15 -12 23 -6 20 11 -7 5 20 -10 39 -7 10 -9 16 -9 35 0
6 -5 10 -11 10 -8 0 -8 -5 1 -15z"/>
<path d="M1199 1403 c-13 -15 -12 -15 9 -4 23 12 28 21 13 21 -5 0 -15 -7 -22
-17z"/>
<path d="M1826 1411 c-4 -6 -13 -8 -20 -5 -9 3 -13 -3 -12 -18 1 -26 27 -31
34 -8 5 13 3 13 -14 0 -19 -14 -19 -14 0 8 11 12 21 22 24 22 3 0 2 -3 -1 -7
-4 -3 -2 -12 4 -20 9 -10 8 -13 -1 -13 -10 0 -10 -3 0 -15 15 -18 31 -20 26
-2 -1 6 -1 9 1 5 6 -11 33 -10 33 1 0 5 -11 12 -25 15 -16 4 -25 13 -23 23 3
18 -17 29 -26 14z"/>
<path d="M870 1395 c11 -13 10 -14 -2 -10 -8 3 -23 -7 -37 -25 -18 -25 -25
-29 -36 -20 -11 9 -14 7 -12 -9 1 -13 6 -20 14 -17 7 3 13 1 13 -3 0 -11 -30
-25 -47 -22 -16 2 -17 -25 -3 -34 6 -4 10 -16 8 -27 -2 -12 2 -23 9 -25 7 -3
10 5 9 21 -3 23 4 31 27 27 9 -1 9 13 0 22 -3 4 -12 2 -20 -5 -11 -8 -17 -8
-26 2 -9 10 -9 11 1 6 7 -4 19 -3 27 4 9 7 15 8 20 0 3 -5 11 -10 17 -10 7 0
7 4 0 13 -6 7 -9 22 -7 32 2 11 4 25 4 30 1 6 6 3 11 -5 6 -9 6 -18 0 -24 -6
-6 -10 -15 -10 -20 0 -17 47 38 47 54 0 8 2 20 3 25 5 20 0 35 -11 35 -8 0 -7
-5 1 -15z m-10 -35 c-12 -8 -12 -10 -1 -10 8 0 12 -3 8 -6 -9 -9 -28 6 -22 17
4 5 12 9 18 9 7 0 6 -4 -3 -10z"/>
<path d="M1036 1402 c-4 -7 -2 -12 6 -12 8 0 6 -5 -4 -11 -10 -5 -18 -15 -18
-20 0 -6 5 -7 12 -3 6 4 8 3 5 -3 -4 -6 0 -14 9 -17 12 -5 14 -1 9 17 -4 15
-3 18 3 9 5 -8 13 -14 17 -14 4 0 12 6 17 14 7 9 8 8 4 -6 -5 -14 -2 -17 10
-12 8 3 18 6 21 6 3 0 -1 8 -8 18 -12 15 -12 16 2 4 14 -10 21 -9 40 7 l24 20
-35 -2 c-19 -1 -41 -8 -48 -14 -20 -19 -38 -16 -49 9 -6 15 -12 18 -17 10z"/>
<path d="M1440 1391 c5 -10 6 -22 2 -26 -4 -5 -1 -5 6 -1 18 11 44 -13 37 -34
-4 -13 4 -25 25 -40 16 -12 30 -26 30 -33 0 -6 -7 -2 -15 9 -8 10 -14 15 -14
9 0 -5 6 -19 14 -29 18 -24 20 -40 3 -30 -7 4 -8 3 -4 -5 6 -9 11 -9 21 -1 8
7 18 9 23 6 5 -3 9 8 9 24 0 16 -4 27 -8 24 -12 -7 -70 56 -63 68 4 6 -1 17
-12 25 -17 13 -17 13 6 10 16 -3 24 -10 22 -21 -2 -10 2 -14 11 -10 17 6 43
-21 27 -31 -5 -3 -10 -11 -10 -17 0 -7 5 -7 14 1 16 14 45 4 68 -24 10 -11 17
-15 18 -8 0 6 -4 14 -10 18 -5 3 -7 12 -4 19 3 8 -1 14 -8 13 -31 -1 -48 4
-48 13 0 7 6 7 19 0 32 -17 38 -11 11 11 -15 13 -26 16 -28 10 -2 -7 -15 -3
-33 10 -17 12 -28 27 -26 33 3 8 -5 13 -22 13 -14 1 -36 4 -49 7 -19 4 -21 2
-12 -13z m31 -8 c13 -16 12 -17 -3 -4 -17 13 -22 21 -14 21 2 0 10 -8 17 -17z"/>
<path d="M925 1380 c-4 -6 -8 -22 -9 -35 -3 -19 1 -23 17 -19 11 2 31 14 45
26 14 13 22 18 19 11 -4 -6 -4 -13 0 -16 5 -2 2 -2 -4 -1 -14 4 -17 -8 -6 -19
10 -11 12 -76 2 -83 -10 -6 -2 -24 10 -24 5 0 8 8 7 18 0 9 6 17 14 17 8 0 14
-6 12 -12 -2 -14 14 -18 22 -5 3 5 -8 20 -24 35 -18 17 -27 34 -23 43 4 11 9
12 16 5 14 -14 27 -14 27 -1 0 6 -7 10 -15 10 -8 0 -17 11 -21 24 -4 16 -13
24 -27 23 -12 0 -29 3 -38 7 -10 4 -20 2 -24 -4z m39 -21 c-2 -4 -13 -7 -24
-6 -10 1 -17 4 -14 8 2 4 13 7 24 6 10 -1 17 -4 14 -8z"/>
<path d="M1137 1352 c-15 -9 -25 -22 -23 -29 3 -7 0 -16 -7 -20 -7 -5 -12 -15
-12 -23 0 -8 -8 -14 -18 -13 -11 0 -16 -4 -13 -12 2 -7 -1 -18 -7 -25 -9 -10
-8 -12 5 -7 10 3 20 1 24 -5 4 -7 3 -8 -4 -4 -7 4 -12 1 -12 -9 0 -11 5 -15
16 -11 9 3 12 2 9 -5 -4 -6 -13 -8 -21 -5 -17 7 -18 -5 -1 -24 9 -11 8 -11 -7
0 -17 14 -18 13 -12 -6 7 -24 -17 -53 -29 -34 -8 13 -35 13 -35 -1 0 -5 4 -8
9 -4 6 3 14 -2 19 -11 9 -16 12 -14 36 10 15 14 32 23 38 20 7 -4 8 1 3 16 -6
20 -5 21 8 9 14 -13 13 -16 0 -31 -17 -20 -4 -25 14 -7 9 9 11 8 9 -4 -1 -9
-5 -20 -9 -23 -4 -4 -7 -12 -7 -18 1 -6 9 -1 19 11 10 12 21 19 25 16 3 -3 -2
-12 -12 -19 -18 -12 -23 -68 -8 -92 4 -7 4 -17 0 -23 -4 -7 -1 -10 7 -7 8 3
12 12 10 19 -9 36 -5 94 7 92 21 -5 13 17 -24 63 -20 25 -34 47 -31 51 3 3 -1
19 -9 36 -15 28 -15 29 1 24 9 -4 14 -3 11 2 -3 4 3 16 13 25 12 11 16 25 13
41 -2 14 0 25 5 25 5 0 18 7 29 15 26 20 5 18 -29 -3z"/>
<path d="M1706 1358 c-9 -5 -16 -6 -16 -2 0 3 -7 1 -15 -6 -12 -10 -18 -10
-29 -1 -22 18 -31 -7 -11 -29 9 -10 14 -23 11 -29 -4 -5 -2 -13 4 -16 6 -4 8
-16 4 -28 -5 -18 -4 -20 7 -9 7 7 14 31 15 55 2 60 3 64 13 47 6 -8 7 -18 4
-23 -3 -5 0 -7 8 -5 8 3 13 12 11 20 -1 8 4 15 10 15 14 0 18 -123 6 -143 -7
-11 -1 -24 12 -24 8 0 10 12 12 104 1 41 5 73 9 70 5 -3 5 -12 2 -22 -5 -14
-3 -15 8 -4 26 24 -29 50 -65 30z m-46 -38 c0 -5 -2 -10 -4 -10 -3 0 -8 5 -11
10 -3 6 -1 10 4 10 6 0 11 -4 11 -10z"/>
<path d="M1793 1333 c-31 -30 -46 -86 -17 -62 12 10 12 14 2 20 -7 5 -8 9 -2
9 5 0 15 -5 22 -12 7 -7 12 -8 12 -2 0 6 -5 15 -10 20 -8 8 -6 15 4 23 16 14
40 6 31 -10 -4 -5 -1 -9 4 -9 16 0 13 26 -3 39 -12 10 -20 7 -43 -16z"/>
<path d="M1062 1324 c-10 -20 -17 -24 -35 -18 -21 6 -22 6 -4 -13 18 -21 67
-28 67 -11 0 6 -9 8 -19 5 -14 -3 -18 -1 -14 9 3 8 9 11 14 8 5 -3 16 -1 24 4
14 7 13 10 -3 25 -18 16 -19 16 -30 -9z"/>
<path d="M1861 1321 c-8 -15 -7 -20 5 -25 8 -3 12 -10 9 -16 -3 -5 -1 -10 4
-10 14 0 14 23 0 37 -8 8 -8 13 0 18 6 3 10 1 9 -6 -2 -6 3 -14 10 -16 11 -4
12 -1 3 16 -14 26 -27 27 -40 2z"/>
<path d="M1521 1313 c13 -15 31 -14 30 2 0 6 -10 11 -21 11 -16 1 -18 -1 -9
-13z"/>
<path d="M1805 1320 c-3 -6 1 -13 9 -16 12 -5 13 -9 3 -25 -13 -21 -33 -27
-21 -6 4 6 -2 3 -13 -8 -11 -11 -20 -27 -21 -35 -2 -38 -11 -55 -42 -86 -18
-19 -28 -34 -22 -34 6 0 13 4 17 10 3 5 12 7 20 3 11 -3 13 -1 9 10 -6 17 33
50 49 40 5 -3 7 0 5 8 -3 8 -13 13 -23 11 -11 -2 -14 1 -10 8 4 6 13 9 21 6
20 -7 18 11 -2 22 -11 6 -13 11 -5 16 6 4 11 1 11 -6 0 -9 3 -9 10 2 7 12 9
11 9 -5 0 -11 2 -34 5 -52 5 -30 3 -31 -26 -30 -17 1 -33 -3 -35 -10 -3 -7 9
-10 36 -8 23 2 43 0 46 -5 3 -4 -3 -7 -12 -6 -16 1 -27 -40 -12 -49 9 -6 21
24 13 36 -3 5 -2 9 3 8 4 -1 13 0 18 1 6 1 17 3 25 4 9 1 15 12 16 31 1 45 3
48 17 36 8 -6 17 -8 20 -4 11 10 8 23 -4 21 -19 -5 -21 18 -4 35 10 10 12 18
5 22 -7 4 -7 11 -2 18 12 15 11 47 -1 47 -5 0 -7 -6 -4 -13 7 -18 -27 -62 -42
-53 -6 4 -9 11 -6 15 2 5 -7 13 -21 20 -14 6 -22 16 -19 21 3 6 2 10 -4 10 -5
0 -13 -5 -16 -10z m37 -42 c-17 -17 -15 -33 2 -19 12 10 16 8 21 -10 l8 -23
18 23 c11 13 19 19 19 13 0 -5 -7 -15 -15 -22 -8 -7 -12 -16 -9 -22 8 -13 -17
-40 -33 -34 -7 3 -13 1 -13 -4 0 -6 3 -10 8 -10 4 0 12 -8 18 -18 9 -14 8 -18
-6 -18 -11 0 -16 6 -12 15 3 8 1 12 -4 8 -6 -3 -11 6 -12 21 0 15 -3 41 -5 57
-5 27 6 55 21 55 3 0 1 -5 -6 -12z"/>
<path d="M1837 1236 c-9 -22 19 -54 33 -39 16 15 3 36 -17 28 -13 -4 -14 -3
-3 10 7 8 8 15 2 15 -5 0 -12 -6 -15 -14z"/>
<path d="M1715 1309 c-4 -6 -13 -8 -21 -5 -8 3 -14 1 -14 -4 0 -9 15 -14 33
-11 5 1 5 -3 2 -9 -4 -6 -14 -9 -22 -6 -9 4 -13 1 -10 -6 2 -7 12 -12 21 -12
13 2 14 -1 5 -12 -9 -11 -9 -14 0 -14 8 0 7 -7 -3 -22 -14 -19 -14 -23 2 -35
14 -11 14 -12 1 -8 -10 4 -16 0 -16 -10 0 -19 11 -19 27 0 9 11 10 18 1 28 -6
8 -8 17 -4 21 7 6 12 116 6 116 -1 0 -5 -5 -8 -11z"/>
<path d="M844 1288 c-5 -8 -2 -9 9 -5 9 3 19 1 23 -5 4 -6 3 -8 -3 -5 -13 8
-55 -22 -47 -34 3 -6 12 -3 19 8 10 14 16 15 25 6 16 -15 3 -36 -17 -29 -9 4
-13 1 -10 -6 2 -7 11 -12 19 -10 24 4 43 -25 28 -42 -6 -8 -18 -12 -26 -9 -10
4 -12 0 -8 -11 7 -19 27 -10 63 29 13 14 27 22 30 18 10 -14 41 -15 37 -1 -1
7 -1 10 1 6 6 -11 33 -10 33 1 0 11 -41 22 -54 14 -5 -4 -25 -8 -43 -9 -34 -2
-52 9 -33 21 8 5 7 11 -1 21 -9 11 -8 18 2 31 8 10 9 14 2 10 -6 -4 -14 -3
-18 3 -8 13 -22 13 -31 -2z"/>
<path d="M703 1269 c-2 -16 1 -17 18 -9 24 13 25 25 1 27 -11 1 -18 -6 -19
-18z"/>
<path d="M1565 1280 c-4 -6 -3 -10 2 -9 14 4 63 -24 57 -32 -3 -5 0 -9 6 -9 6
0 4 -9 -5 -23 -15 -23 -14 -24 14 -24 20 0 28 4 24 14 -3 7 -9 10 -14 7 -5 -3
-6 2 -3 10 4 10 -6 27 -24 46 -32 32 -47 37 -57 20z"/>
<path d="M670 1250 c0 -11 4 -20 8 -20 4 0 8 9 9 20 1 11 -2 20 -8 20 -5 0 -9
-9 -9 -20z"/>
<path d="M720 1250 c-8 -5 -18 -6 -24 -3 -5 3 -6 1 -2 -6 4 -6 1 -14 -7 -17
-24 -9 -11 -152 14 -146 10 3 10 0 -1 -12 -7 -9 -8 -16 -2 -16 5 0 15 6 21 14
10 12 8 17 -9 26 -12 6 -19 14 -16 17 3 3 12 0 21 -7 8 -7 15 -8 15 -2 0 16
-28 34 -42 26 -10 -5 -10 -4 -1 6 10 11 16 10 33 -5 11 -10 18 -25 16 -32 -6
-15 10 -18 19 -3 8 13 -51 73 -64 66 -14 -9 -7 19 9 40 14 16 13 17 -3 11 -11
-4 -16 -3 -12 4 4 6 14 8 22 5 11 -5 13 -2 9 9 -3 9 -2 14 3 10 5 -3 12 1 15
7 3 7 3 3 0 -9 -3 -16 1 -25 17 -33 17 -10 20 -10 13 2 -5 7 -9 22 -9 32 0 23
-14 29 -35 16z"/>
<path d="M805 1231 c5 -18 4 -22 -5 -16 -8 5 -11 4 -6 -3 12 -19 -29 -33 -50
-17 -16 11 -21 11 -34 -3 -14 -14 -11 -20 28 -60 35 -35 46 -41 58 -31 8 6 14
16 14 21 0 6 -6 5 -15 -2 -8 -6 -19 -9 -25 -5 -18 11 0 25 26 21 16 -3 24 -1
22 6 -6 17 -48 17 -57 0 -7 -13 -10 -11 -16 7 -3 11 -10 19 -15 16 -5 -3 -11
-1 -15 4 -3 6 4 8 17 5 13 -3 34 -7 48 -8 14 -2 33 -6 42 -10 15 -7 16 -10 3
-30 -14 -22 -14 -23 14 -23 29 0 29 1 16 27 -8 15 -11 31 -7 35 4 3 0 5 -8 3
-11 -2 -15 6 -15 29 0 18 -6 38 -14 45 -11 11 -12 9 -6 -11z m5 -41 c0 -5 -5
-10 -11 -10 -5 0 -7 5 -4 10 3 6 8 10 11 10 2 0 4 -4 4 -10z"/>
<path d="M850 1240 c0 -5 5 -10 10 -10 6 0 10 5 10 10 0 6 -4 10 -10 10 -5 0
-10 -4 -10 -10z"/>
<path d="M1016 1233 c4 -10 7 -28 7 -40 -1 -13 2 -21 6 -19 4 3 7 -4 7 -14 0
-10 -4 -16 -9 -13 -5 3 -8 0 -6 -6 8 -23 24 -16 25 9 1 14 4 33 8 42 5 11 1
20 -14 28 -11 6 -18 15 -15 21 4 5 1 9 -5 9 -8 0 -9 -6 -4 -17z"/>
<path d="M1580 1244 c0 -4 7 -12 17 -19 13 -9 13 -14 3 -20 -9 -6 -11 -4 -5 6
6 11 5 12 -6 2 -9 -10 -10 -16 -2 -24 6 -6 9 -17 7 -24 -3 -7 -1 -16 5 -19 14
-9 25 14 13 26 -7 7 -8 17 -2 29 12 22 3 49 -16 49 -8 0 -14 -3 -14 -6z"/>
<path d="M1672 1237 c-12 -15 -7 -47 8 -47 13 0 21 31 12 46 -7 13 -10 13 -20
1z"/>
<path d="M833 1191 c-1 -10 4 -18 10 -18 7 0 19 -2 27 -4 8 -2 15 3 15 11 0 8
-6 14 -14 12 -7 -1 -18 2 -25 7 -8 7 -12 5 -13 -8z"/>
<path d="M1538 1196 c-24 -18 -22 -24 7 -21 22 3 24 1 14 -17 -9 -17 -9 -20 4
-15 18 7 29 -16 20 -40 -6 -16 -5 -17 13 -3 10 8 21 16 23 17 3 2 -5 11 -18
19 -12 9 -20 22 -17 30 3 8 1 14 -4 14 -6 0 -10 7 -10 15 0 18 -9 19 -32 1z"/>
<path d="M911 1154 c-10 -13 -24 -24 -31 -24 -7 0 -10 -6 -7 -14 3 -7 1 -18
-5 -24 -6 -6 -7 -15 -4 -21 13 -21 23 -11 21 21 -2 27 0 29 10 14 12 -15 14
-15 36 4 13 10 19 19 13 20 -5 0 -15 -5 -21 -11 -8 -8 -13 -7 -18 2 -5 7 -4
10 3 5 6 -3 14 -1 17 5 4 5 13 8 21 5 7 -3 16 -1 19 4 8 13 -18 18 -40 8 -19
-9 -19 -9 -1 6 14 11 24 13 38 5 11 -6 25 -7 32 -2 6 4 -1 -3 -16 -17 -27 -24
-36 -41 -20 -39 26 4 34 -1 22 -16 -15 -18 0 -20 20 -2 12 10 12 9 1 -6 -8 -9
-20 -16 -29 -15 -8 2 -17 -2 -19 -9 -6 -16 36 -8 54 10 14 14 7 51 -7 42 -5
-3 -12 0 -16 6 -4 7 3 20 17 30 19 14 21 21 12 30 -10 10 -15 9 -28 -1 -8 -7
-15 -8 -15 -3 0 19 -40 11 -59 -13z"/>
<path d="M1629 1168 c-6 -73 -6 -76 7 -71 8 3 11 10 7 16 -3 6 -1 7 5 3 7 -4
12 -3 12 3 0 5 -8 15 -17 20 -10 6 -12 11 -5 11 6 0 12 7 12 15 0 18 -20 20
-21 3z"/>
<path d="M1660 1160 c-11 -20 -4 -26 15 -12 14 10 17 32 5 32 -5 0 -14 -9 -20
-20z"/>
<path d="M1481 1120 c-48 -44 -52 -52 -40 -67 12 -16 11 -16 -8 0 -15 13 -28
17 -45 11 -35 -12 -121 -13 -142 -1 -15 7 -22 5 -32 -8 -14 -18 -10 -35 6 -35
5 0 7 6 4 14 -3 8 -1 17 5 21 6 3 9 0 5 -8 -3 -8 -1 -18 5 -22 6 -3 11 2 12
12 0 11 3 13 6 5 2 -7 14 -17 25 -23 18 -10 20 -9 14 7 -7 17 -6 17 14 -1 20
-18 28 -9 10 13 -5 7 -3 6 6 -2 13 -11 14 -18 5 -35 -10 -18 -7 -25 19 -52 16
-17 27 -35 24 -40 -3 -5 -1 -9 4 -9 16 0 22 13 11 26 -12 15 -3 37 12 29 5 -4
9 -1 9 4 0 14 -23 14 -36 1 -17 -17 -38 14 -26 37 7 11 7 24 0 38 -7 15 -4 14
12 -5 21 -24 21 -24 15 -2 -7 24 4 29 23 10 8 -8 12 -9 12 -1 0 6 -5 14 -10
16 -6 3 -5 4 2 3 7 -2 13 -10 12 -18 -1 -10 8 -15 27 -15 15 0 26 4 23 8 -2 4
7 19 21 33 14 14 25 31 25 38 -1 7 -12 0 -25 -17 -18 -22 -27 -27 -36 -18 -8
8 -7 13 2 18 8 5 10 4 5 -3 -4 -7 -2 -12 3 -12 6 0 11 4 11 10 0 14 66 80 74
73 3 -4 6 -1 6 5 0 21 -14 13 -69 -38z"/>
<path d="M1520 1130 c-13 -9 -13 -11 0 -20 20 -13 30 -12 26 3 -1 6 -1 9 1 4
3 -4 10 -4 16 0 6 4 1 -6 -11 -22 -20 -25 -21 -30 -7 -37 8 -5 13 -13 10 -19
-4 -5 -1 -9 4 -9 14 0 14 23 0 37 -8 8 -8 13 0 18 6 3 10 1 9 -6 -2 -6 3 -14
10 -16 11 -4 12 -1 3 15 -6 11 -8 28 -5 36 3 9 2 16 -4 16 -6 0 -16 2 -24 5
-7 3 -20 0 -28 -5z"/>
<path d="M1670 1122 c0 -21 -46 -47 -55 -31 -9 13 -28 0 -22 -15 3 -7 -3 -23
-13 -37 -15 -19 -21 -22 -31 -11 -7 6 -9 12 -3 12 5 1 -2 7 -16 15 -14 8 -19
14 -12 15 6 0 12 8 12 18 -1 15 -2 15 -15 -3 -8 -11 -19 -26 -25 -32 -6 -7
-11 -16 -11 -20 0 -5 -8 -16 -16 -25 -9 -10 -11 -18 -6 -18 17 0 35 28 27 42
-5 10 -4 10 6 1 11 -10 11 -16 -4 -32 -20 -22 -69 -23 -88 -1 -11 12 -11 12 5
1 27 -21 30 -7 4 17 l-23 22 1 -25 c0 -13 9 -30 19 -38 19 -14 14 -43 -5 -32
-13 9 -11 -9 3 -23 8 -8 5 -16 -13 -31 -13 -11 -19 -20 -12 -21 6 0 14 4 18
10 3 5 12 7 19 4 14 -5 16 22 3 43 -4 7 1 14 14 18 17 6 19 9 8 17 -11 8 -10
9 4 4 12 -4 30 6 54 29 l36 35 15 -21 15 -22 14 27 c8 15 18 24 24 20 6 -3 8
4 5 18 -3 18 1 24 14 24 10 0 16 -4 14 -8 -3 -4 0 -8 5 -8 6 0 11 7 11 16 0
12 5 11 20 -7 21 -26 26 -20 9 14 -10 21 -10 21 6 2 16 -21 15 -42 -4 -37 -6
1 -11 -2 -11 -8 0 -13 23 -13 37 1 8 8 13 8 17 0 4 -6 12 -11 19 -11 6 0 -1
12 -16 26 -16 14 -25 29 -21 33 4 3 9 0 11 -7 3 -8 11 -5 24 10 l20 23 -16
-27 c-16 -26 -16 -27 4 -25 16 1 19 7 17 29 -2 15 1 25 6 22 5 -3 7 -12 4 -19
-2 -7 4 -21 15 -31 10 -9 19 -12 19 -6 0 6 -5 14 -10 17 -6 3 -8 16 -6 29 4
23 -15 29 -42 12 -7 -4 -16 -5 -19 -2 -3 3 -12 1 -19 -5 -17 -14 -35 -3 -27
16 3 8 0 15 -6 15 -6 0 -11 -8 -11 -18z m-140 -78 c0 -8 -19 -13 -24 -6 -3 5
1 9 9 9 8 0 15 -2 15 -3z"/>
<path d="M1074 1115 c-3 -8 -14 -17 -24 -20 -11 -3 -22 -15 -25 -25 -5 -17
-27 -30 -61 -36 -7 -1 -26 11 -44 28 -21 19 -30 23 -25 11 5 -10 8 -28 8 -40
-1 -14 4 -20 13 -16 8 3 11 10 7 16 -3 6 -1 7 5 3 21 -13 55 -16 68 -5 8 7 14
7 19 -1 9 -15 -24 -51 -43 -48 -8 2 -17 -2 -19 -9 -3 -8 4 -11 18 -8 23 5 110
85 93 85 -6 0 -15 -5 -21 -11 -8 -8 -13 -7 -18 3 -5 7 -5 10 0 6 4 -4 14 -3
21 3 15 12 37 3 29 -12 -4 -5 -1 -9 4 -9 15 0 14 23 -1 39 -11 11 -9 11 7 1
11 -6 21 -23 22 -37 0 -15 -2 -22 -5 -17 -10 13 -44 14 -39 1 1 -5 11 -11 21
-13 25 -4 44 -23 21 -21 -10 1 -20 -3 -22 -9 -4 -11 32 -12 43 -1 4 4 3 12 -3
19 -5 7 -8 24 -7 38 1 14 -3 31 -8 38 -7 8 -7 16 1 26 9 11 8 14 -6 12 -10 0
-17 5 -15 12 3 17 -7 15 -14 -3z m-14 -34 c0 -5 -7 -12 -16 -15 -14 -5 -15 -4
-4 9 14 17 20 19 20 6z"/>
<path d="M793 1087 c-3 -5 -11 -6 -17 -4 -15 6 -76 -39 -76 -55 0 -6 9 -3 19
6 11 10 25 15 32 10 9 -5 10 -2 6 9 -3 9 -3 19 2 21 9 6 11 -4 11 -69 1 -77 0
-86 -12 -79 -13 8 5 -23 31 -53 18 -22 38 -32 27 -15 -2 4 4 13 14 20 23 14
34 -7 19 -40 -9 -21 -9 -21 -4 5 3 15 1 27 -4 27 -16 0 -22 -32 -9 -47 23 -28
125 -102 132 -96 8 9 8 23 -1 22 -28 -5 -35 1 -22 18 12 15 12 16 -3 10 -26
-10 -48 2 -40 21 5 15 3 15 -10 4 -13 -10 -18 -10 -24 -1 -4 7 -3 9 4 5 6 -3
13 -2 16 3 3 5 -1 12 -9 15 -12 4 -13 10 -6 24 6 11 5 25 -3 40 l-12 23 -26
-20 c-23 -19 -26 -19 -24 -3 1 12 -5 16 -19 14 -12 -2 -16 0 -9 5 9 7 12 22
15 75 0 9 7 19 15 22 8 3 14 11 14 17 0 8 -4 8 -15 -1 -10 -9 -15 -9 -15 -1 0
6 5 11 10 11 6 0 10 5 10 11 0 5 -4 8 -9 5 -5 -3 -11 1 -15 9 -3 8 0 17 6 21
7 4 8 3 4 -4 -11 -18 5 -14 26 5 18 16 18 16 12 0 -3 -10 -1 -17 5 -17 6 0 11
9 11 19 0 14 -7 19 -26 17 -14 0 -28 -5 -31 -9z"/>
<path d="M923 1093 c-18 -6 -16 -20 3 -27 16 -6 44 9 44 23 0 8 -30 10 -47 4z"/>
<path d="M1185 1080 c5 -9 -7 -14 -26 -12 -9 2 -5 -61 5 -77 4 -6 2 -19 -6
-28 -12 -15 -11 -15 9 -5 25 14 28 56 3 47 -11 -5 -12 -3 -3 6 12 12 37 3 28
-11 -3 -5 -1 -11 4 -14 17 -11 20 24 2 36 -9 7 -21 20 -26 28 -8 13 -7 13 8 1
9 -7 17 -11 17 -8 0 3 3 12 6 20 3 8 -2 17 -11 21 -9 3 -13 2 -10 -4z"/>
<path d="M1821 1063 c-8 -18 -15 -22 -24 -15 -13 10 -47 12 -47 2 0 -9 22 -30
32 -30 4 0 5 8 2 18 -5 14 -4 15 5 2 8 -12 14 -13 30 -3 15 10 22 9 31 -2 13
-15 4 -39 -11 -30 -5 4 -9 1 -9 -4 0 -14 22 -14 38 -1 9 7 9 7 2 -2 -15 -18
-12 -28 8 -22 14 5 15 4 2 -5 -8 -6 -10 -11 -5 -11 6 0 2 -7 -8 -14 -10 -8
-14 -17 -9 -20 17 -10 35 24 36 69 1 32 4 41 13 34 7 -6 13 -6 17 -1 7 12 -22
25 -35 16 -5 -3 -7 -10 -4 -15 11 -17 -4 -9 -28 15 -20 20 -22 26 -10 30 9 4
11 2 7 -5 -4 -7 -2 -10 5 -8 19 7 13 24 -8 25 -11 1 -24 -9 -30 -23z"/>
<path d="M821 1039 c12 -24 25 -24 38 -1 6 9 11 11 11 5 0 -7 7 -13 15 -13 18
0 20 20 3 21 -80 7 -78 8 -67 -12z"/>
<path d="M1614 1041 c1 -9 -4 -15 -11 -14 -15 3 -25 -25 -11 -33 7 -5 8 -2 3
6 -5 9 -4 11 4 6 6 -4 14 0 17 9 5 13 9 13 22 3 13 -11 15 -10 9 5 -4 11 -3
16 4 12 6 -4 8 -14 5 -22 -4 -10 -2 -13 8 -10 18 7 40 -18 30 -34 -5 -9 -2
-10 9 -6 9 3 19 2 22 -3 4 -6 12 -10 18 -10 7 0 -10 20 -36 45 -27 24 -46 48
-43 53 3 5 -8 9 -23 9 -20 0 -28 -5 -27 -16z"/>
<path d="M724 1023 c-9 -9 -11 -20 -5 -31 5 -9 12 -25 15 -35 3 -10 11 -15 17
-11 8 4 7 9 -2 15 -11 7 -10 9 4 9 9 0 17 5 17 11 0 5 -5 7 -12 3 -7 -5 -8 -3
-3 7 24 38 0 62 -31 32z m32 -15 c4 -7 3 -8 -4 -4 -7 4 -12 2 -12 -4 0 -6 -5
-8 -11 -4 -8 4 -7 9 2 15 18 11 17 11 25 -3z"/>
<path d="M1705 1030 c-7 -11 60 -90 75 -90 3 0 6 9 6 20 0 13 -5 19 -13 15 -8
-2 -22 4 -32 14 -18 18 -18 19 6 19 15 0 20 -3 13 -8 -9 -5 -9 -9 -1 -14 6 -4
11 -2 11 5 0 7 8 5 20 -6 22 -20 28 -8 8 15 -11 12 -10 12 3 2 14 -10 18 -10
23 3 3 9 10 13 16 10 5 -3 10 -2 10 4 0 16 -20 23 -25 9 -5 -12 -47 -17 -65
-8 -3 1 -9 2 -14 1 -4 -1 -14 3 -21 9 -10 8 -15 8 -20 0z"/>
<path d="M860 1023 c0 -13 14 -28 28 -30 19 -4 14 15 -8 27 -11 6 -20 7 -20 3z"/>
<path d="M987 1013 c-9 -10 -17 -12 -17 -6 0 10 -47 12 -53 2 -34 -48 -41 -78
-11 -50 5 6 16 4 28 -5 11 -8 15 -14 9 -14 -7 0 -15 5 -18 10 -7 12 -25 4 -25
-11 0 -6 4 -8 9 -4 5 3 16 -2 25 -10 13 -13 15 -13 21 7 7 21 8 21 23 -5 9
-15 20 -27 24 -27 12 0 10 14 -3 27 -6 6 -8 16 -4 22 9 15 28 3 21 -14 -5 -13
12 -35 27 -35 5 0 4 7 -3 15 -6 8 -9 19 -6 24 4 5 -1 14 -10 19 -15 9 -15 10
5 17 12 3 18 11 15 17 -4 7 -2 8 5 4 6 -4 9 -12 5 -17 -10 -17 -12 -59 -3 -65
9 -5 10 -4 14 33 1 13 8 31 16 40 7 10 9 15 5 11 -5 -4 -15 -3 -22 3 -11 9
-22 4 -48 -19 -38 -33 -50 -35 -82 -12 -19 14 -20 17 -6 30 14 13 15 12 9 -3
-7 -18 8 -24 18 -7 3 5 12 7 19 4 7 -3 19 2 26 11 18 22 7 28 -13 8z"/>
<path d="M1226 1005 c-3 -8 3 -19 11 -27 15 -11 16 -11 10 5 -4 11 -3 16 3 12
6 -3 10 0 10 7 0 10 2 10 9 -1 5 -8 16 -11 26 -8 10 4 14 3 10 -4 -4 -5 -2
-16 5 -24 14 -17 -5 -31 -24 -16 -13 11 -26 5 -26 -11 0 -5 4 -7 9 -4 5 3 23
-8 40 -25 17 -16 37 -27 43 -23 7 5 8 3 3 -6 -5 -9 -4 -11 3 -6 17 10 9 43
-16 66 -21 20 -26 32 -23 57 1 6 -6 12 -16 12 -10 0 -30 2 -45 5 -16 2 -29 -1
-32 -9z m102 -76 c-2 -6 3 -14 11 -17 9 -3 11 0 6 8 -6 9 -4 11 4 5 9 -5 10
-10 2 -18 -12 -12 -44 10 -35 24 7 13 14 11 12 -2z"/>
<path d="M1430 1010 c0 -5 5 -10 10 -10 6 0 10 5 10 10 0 6 -4 10 -10 10 -5 0
-10 -4 -10 -10z"/>
<path d="M811 997 c-6 -8 -8 -17 -4 -20 3 -4 0 -13 -6 -21 -9 -11 -10 -20 -1
-35 12 -24 15 -25 40 -11 16 9 22 6 34 -18 10 -19 11 -33 5 -45 -8 -13 -6 -17
5 -17 9 0 18 -11 22 -24 7 -29 49 -32 52 -2 1 18 0 18 -20 0 -12 -11 -18 -14
-15 -7 4 6 4 13 0 16 -5 2 -3 2 4 1 6 -2 11 6 10 17 -1 21 -12 25 -22 9 -4 -6
-11 -8 -16 -4 -5 3 -7 9 -4 14 3 5 1 18 -4 28 -7 13 -7 22 1 30 9 9 2 21 -25
48 -20 21 -37 32 -37 26 0 -6 4 -13 10 -17 5 -3 7 -12 4 -19 -3 -9 1 -13 12
-13 9 1 19 -5 21 -13 4 -12 2 -12 -5 -2 -9 13 -32 13 -42 0 -3 -4 -12 3 -19
15 -13 20 -13 21 3 8 15 -13 16 -11 11 17 -6 38 9 49 32 23 16 -20 33 -20 33
0 0 6 -5 7 -10 4 -6 -3 -13 1 -16 9 -7 20 -38 21 -53 3z"/>
<path d="M1356 995 c-8 -22 3 -40 16 -27 7 7 7 16 1 27 -9 16 -10 16 -17 0z"/>
<path d="M1508 992 c-7 -11 -23 -24 -35 -31 -13 -6 -23 -17 -23 -23 0 -6 9 -3
19 6 21 19 35 8 25 -18 -3 -9 -2 -16 4 -16 13 0 23 39 11 46 -5 3 -7 10 -3 15
3 5 10 6 16 3 8 -5 9 -1 4 12 -6 15 -5 16 5 7 9 -9 9 -16 1 -26 -7 -8 -9 -16
-6 -20 3 -3 1 -15 -6 -26 -7 -13 -7 -21 -1 -21 13 0 34 38 27 48 -3 4 -1 14 4
22 5 9 5 19 -2 27 -14 18 -25 16 -40 -5z"/>
<path d="M1613 998 c-5 -7 -8 -24 -7 -38 1 -15 -6 -31 -18 -41 -20 -15 -19
-16 9 -16 27 0 29 3 29 44 0 23 4 43 9 42 6 0 9 -6 7 -13 -1 -8 7 -12 20 -11
13 1 23 8 23 16 0 8 -8 13 -17 11 -9 -1 -19 2 -23 8 -8 14 -21 13 -32 -2z"/>
<path d="M1900 1000 c0 -5 5 -10 10 -10 6 0 10 5 10 10 0 6 -4 10 -10 10 -5 0
-10 -4 -10 -10z"/>
<path d="M1256 974 c-5 -13 -9 -14 -20 -4 -11 8 -20 9 -35 0 -12 -6 -21 -13
-21 -16 0 -3 4 -3 9 1 5 3 12 1 16 -5 10 -17 25 -11 19 8 -5 14 -4 15 5 2 8
-12 14 -13 30 -3 13 8 22 9 26 3 3 -6 11 -10 16 -10 14 0 2 18 -21 30 -14 7
-19 6 -24 -6z"/>
<path d="M1565 980 c-7 -11 -12 -38 -19 -98 -5 -34 1 -34 37 -4 16 14 17 14
11 -1 -3 -10 -1 -17 5 -17 6 0 11 9 11 21 0 15 -5 19 -17 15 -10 -3 -24 -2
-31 2 -9 6 -5 12 13 22 26 14 36 36 12 27 -8 -3 -14 1 -14 9 0 9 6 13 15 9 8
-3 12 0 10 7 -6 17 -25 21 -33 8z"/>
<path d="M1816 974 c-3 -8 -10 -12 -16 -9 -5 3 -10 1 -10 -4 0 -15 27 -14 34
2 3 6 3 2 0 -11 -5 -21 -4 -21 20 -11 27 13 26 23 -4 39 -13 7 -19 6 -24 -6z"/>
<path d="M1073 941 c-1 -9 -4 -33 -7 -53 -3 -29 -1 -36 10 -31 8 3 11 9 8 14
-3 5 3 6 13 3 14 -4 12 -1 -6 15 -13 12 -18 21 -12 21 6 0 10 6 9 13 -2 6 4
10 12 8 8 -2 38 -4 65 -5 29 -1 49 -6 48 -12 -1 -6 11 -11 27 -11 25 0 28 3
19 19 -6 12 -17 17 -26 14 -8 -3 -20 -3 -26 1 -7 4 -23 9 -37 10 -14 1 -41 4
-60 6 -27 3 -36 0 -37 -12z"/>
<path d="M1633 932 c0 -15 3 -22 12 -18 7 2 18 -1 24 -7 8 -8 14 -7 24 2 8 10
8 12 0 7 -6 -3 -15 -1 -18 5 -4 5 -14 8 -24 4 -13 -5 -14 -4 -3 6 9 10 15 10
23 2 6 -6 18 -9 25 -6 8 3 14 -1 14 -11 0 -9 5 -16 11 -16 6 0 9 7 5 15 -8 22
7 18 22 -6 7 -12 16 -18 19 -15 3 3 0 13 -8 23 -12 14 -12 15 0 9 9 -6 12 -5
9 5 -3 8 -11 14 -19 15 -8 0 -16 2 -19 3 -3 2 -25 4 -50 5 -41 2 -45 -1 -47
-22z"/>
<path d="M1472 937 c-9 -10 -8 -19 3 -35 10 -13 12 -23 5 -27 -5 -3 -10 -12
-10 -18 1 -7 10 -1 20 12 11 13 20 18 20 12 0 -6 7 -11 15 -11 25 0 17 15 -16
27 -25 10 -29 16 -24 32 7 24 2 27 -13 8z"/>
<path d="M1433 908 c1 -23 -2 -33 -13 -33 -8 0 -21 -4 -27 -8 -7 -5 -17 -6
-22 -3 -4 3 -6 -20 -4 -52 2 -31 3 -63 3 -69 -1 -54 -5 -71 -13 -66 -5 3 -8 0
-5 -7 5 -17 68 -21 88 -6 19 14 24 43 8 43 -7 0 -19 2 -27 4 -7 2 -16 -2 -18
-9 -3 -7 -1 -12 4 -11 19 3 34 -2 29 -10 -3 -5 -17 -8 -30 -8 -22 0 -24 3 -20
31 3 17 5 36 5 41 -1 6 -3 32 -5 58 -2 36 0 47 9 43 7 -2 23 6 36 20 12 13 19
24 15 24 -5 0 -3 6 3 14 9 10 8 16 -3 25 -12 10 -14 7 -13 -21z"/>
<path d="M1784 928 c-14 -19 -11 -51 5 -56 9 -3 11 0 6 7 -5 9 -2 9 13 0 12
-7 18 -17 15 -22 -3 -5 -9 -4 -13 3 -6 9 -16 1 -33 -26 -13 -21 -23 -41 -21
-43 1 -1 22 15 45 38 24 23 39 41 34 41 -4 0 2 8 14 19 18 16 19 20 6 31 -12
10 -18 10 -30 0 -9 -7 -13 -15 -10 -18 2 -3 12 1 21 9 16 13 16 12 4 -8 -13
-20 -15 -20 -37 -6 -26 17 -28 21 -10 19 14 -1 23 17 9 22 -5 1 -13 -3 -18
-10z"/>
<path d="M910 916 c0 -9 5 -16 10 -16 6 0 10 4 10 9 0 6 -4 13 -10 16 -5 3
-10 -1 -10 -9z"/>
<path d="M947 908 c-12 -13 -25 -17 -38 -13 -18 6 -19 5 -9 -14 6 -12 8 -27 4
-34 -4 -6 4 -1 17 13 13 14 32 32 43 41 10 9 15 18 10 21 -5 3 -17 -4 -27 -14z"/>
<path d="M1092 919 c4 -15 39 -59 48 -59 3 0 6 9 6 20 0 12 -5 19 -13 16 -7
-3 -15 -2 -17 3 -3 4 10 7 29 7 19 -1 37 -7 40 -14 3 -7 10 -10 16 -6 8 5 9 3
4 -5 -5 -9 -10 -10 -18 -2 -14 14 -37 14 -37 0 0 -5 4 -8 9 -4 6 3 14 -1 18
-10 8 -14 11 -14 28 0 19 14 19 16 2 29 -13 10 -15 15 -5 19 7 2 -7 4 -32 3
-25 -1 -53 2 -63 6 -12 6 -16 5 -15 -3z"/>
<path d="M1272 919 c4 -9 1 -22 -5 -28 -9 -10 -8 -15 6 -25 9 -7 17 -16 17
-19 0 -4 -8 -4 -17 -1 -17 5 -17 5 0 -9 17 -15 24 -33 8 -23 -5 3 -15 -2 -22
-11 -12 -14 -11 -15 9 -9 12 4 22 4 23 -1 0 -4 2 -19 4 -33 3 -29 -11 -51 -29
-44 -9 3 -12 -9 -12 -41 0 -25 2 -45 5 -46 3 -1 25 -2 49 -4 36 -1 42 1 37 14
-3 11 0 10 10 -3 8 -11 15 -16 15 -10 0 5 19 10 42 11 24 1 51 3 61 3 9 1 17
6 17 11 0 6 -4 7 -10 4 -22 -13 -8 4 14 19 16 10 27 12 31 6 4 -6 1 -9 -6 -8
-6 2 -14 -3 -16 -10 -4 -11 -1 -12 13 -4 11 5 25 7 32 5 6 -3 12 2 12 11 0 9
5 16 11 16 5 0 7 -6 3 -12 -5 -9 -2 -9 9 1 9 7 17 10 17 6 0 -5 8 -1 18 7 9 9
24 17 32 20 10 3 11 6 2 12 -6 3 -20 -2 -32 -14 -11 -11 -20 -17 -20 -12 0 4
-14 7 -30 7 -25 1 -29 -2 -24 -18 5 -17 4 -17 -15 2 -12 12 -20 26 -18 32 1 6
-3 13 -9 16 -7 2 -11 -8 -10 -24 1 -22 -3 -27 -17 -25 -9 2 -17 -1 -16 -5 3
-20 -2 -34 -10 -28 -5 3 -12 1 -15 -4 -7 -10 -66 -8 -84 3 -15 9 -34 -2 -27
-15 4 -5 2 -9 -3 -9 -15 0 -22 25 -16 56 4 22 2 25 -9 16 -14 -12 -16 -39 -4
-58 3 -6 0 -11 -7 -11 -21 0 -14 58 10 82 15 15 20 30 17 51 -8 60 -8 104 2
104 6 0 10 -7 10 -14 0 -8 4 -18 8 -22 4 -4 7 -2 7 5 0 7 5 9 11 5 24 -14 -7
24 -45 57 -22 19 -37 27 -34 18z m27 -40 c-15 -9 -32 -2 -24 11 3 5 13 6 21 3
12 -4 13 -8 3 -14z"/>
<path d="M1638 899 c-10 -5 -18 -15 -18 -20 0 -6 5 -7 12 -3 6 4 8 3 5 -3 -4
-6 -1 -13 6 -16 10 -4 14 4 14 24 0 16 -1 29 -1 29 -1 0 -9 -5 -18 -11z"/>
<path d="M960 890 c-19 -12 -21 -58 -3 -64 8 -4 13 -13 10 -20 -3 -8 0 -20 8
-26 11 -10 14 -6 12 22 -2 26 1 32 16 30 9 -2 17 2 17 8 0 12 -31 14 -46 3 -5
-5 -6 -4 -1 2 12 16 8 25 -10 18 -15 -6 -16 -5 -3 9 8 9 17 12 18 7 2 -5 9 -6
14 -3 7 4 8 2 4 -4 -4 -7 -3 -12 3 -12 5 0 15 8 20 18 6 9 11 11 11 5 0 -7 7
-13 15 -13 18 0 20 20 3 21 -7 1 -27 2 -44 4 -18 1 -37 -1 -44 -5z"/>
<path d="M1226 875 c-4 -14 -13 -25 -21 -25 -8 0 -15 -5 -15 -11 0 -5 4 -8 9
-4 16 9 24 -15 10 -31 -8 -10 -15 -12 -23 -4 -16 16 -30 12 -16 -5 6 -8 8 -20
4 -27 -12 -19 -12 -49 0 -45 6 2 11 13 12 23 1 11 13 32 28 48 24 23 26 29 14
44 -12 15 -11 16 4 4 10 -8 14 -20 11 -30 -6 -15 -5 -15 11 -3 9 8 13 17 7 20
-5 4 -9 13 -9 21 3 52 -15 69 -26 25z"/>
<path d="M1455 891 c6 -11 -45 -62 -55 -56 -8 5 -6 -73 3 -81 3 -4 1 -16 -5
-28 -10 -19 -10 -20 5 -7 14 11 20 11 34 0 11 -10 14 -10 9 -1 -12 20 5 14 23
-10 18 -21 18 -21 18 15 0 26 -4 34 -12 27 -6 -5 -20 -7 -30 -5 -11 2 -23 4
-26 4 -4 1 -10 8 -13 17 -3 9 -2 12 5 9 11 -8 39 12 39 27 0 6 -7 5 -15 -2
-11 -9 -19 -10 -26 -3 -6 6 -5 10 3 10 41 1 61 18 52 45 -2 9 0 19 6 23 12 7
4 25 -11 25 -6 0 -8 -4 -4 -9z m-15 -61 c-24 -15 -36 -11 -14 4 10 8 21 12 24
10 2 -3 -2 -9 -10 -14z"/>
<path d="M1678 892 c-22 -4 -24 -22 -3 -22 8 0 15 5 15 11 0 6 9 1 21 -12 16
-18 19 -20 15 -6 -3 10 -2 16 3 12 5 -3 11 -1 13 5 2 6 9 0 17 -12 13 -21 13
-22 -2 -9 -20 16 -23 2 -4 -19 9 -11 8 -11 -7 0 -18 14 -19 13 -13 -4 4 -10 3
-24 -3 -31 -7 -9 -5 -16 7 -26 14 -12 16 -12 11 1 -3 8 4 30 15 48 18 31 18
35 3 50 -16 16 -53 22 -88 14z"/>
<path d="M1024 840 c1 -30 17 -42 25 -19 2 7 -1 9 -9 4 -9 -5 -11 -4 -6 4 4 6
12 9 17 6 5 -4 9 -2 9 4 0 6 -8 15 -19 20 -16 9 -18 7 -17 -19z"/>
<path d="M1093 857 c-13 -5 -25 -18 -28 -28 -3 -9 -12 -23 -20 -29 -12 -10
-19 -8 -35 11 l-20 24 5 -32 c5 -32 -8 -53 -20 -33 -4 6 -11 8 -16 5 -13 -9
-11 -25 4 -23 7 2 11 -6 10 -20 -2 -17 4 -25 25 -32 15 -6 35 -15 45 -21 11
-6 21 -8 24 -5 4 3 12 -2 20 -12 12 -16 13 -16 7 3 -6 20 -5 20 10 1 9 -11 16
-16 16 -11 0 5 5 4 12 -3 8 -8 17 -8 31 -1 14 8 22 8 31 -1 8 -8 6 -9 -8 -4
-12 5 -17 4 -13 -3 8 -12 65 -15 72 -3 3 5 1 11 -5 15 -5 3 -10 1 -10 -5 0 -6
-11 -3 -25 8 -15 12 -36 18 -54 16 -32 -4 -57 17 -45 37 5 9 2 10 -9 6 -9 -3
-19 -2 -22 3 -4 6 -12 10 -18 10 -7 -1 -2 -9 11 -19 12 -11 22 -23 22 -27 0
-4 -10 1 -22 12 -21 19 -21 19 -15 -1 7 -18 6 -19 -6 -3 -8 10 -17 15 -20 11
-4 -3 -13 -1 -20 5 -8 7 -16 11 -18 9 -2 -1 -1 2 3 7 3 5 4 14 2 21 -8 20 23
40 40 25 8 -6 13 -17 10 -23 -3 -8 11 -12 41 -13 28 0 44 4 42 10 -2 6 -17 10
-33 9 -39 -2 -61 28 -33 45 11 7 20 8 24 2 3 -6 12 -10 18 -10 7 1 3 9 -9 18
-19 16 -19 19 -6 32 14 13 15 12 9 -3 -8 -21 6 -22 23 -2 18 21 1 35 -27 22z"/>
<path d="M1137 842 c-27 -28 -36 -49 -17 -37 6 4 9 1 8 -7 -2 -7 5 -12 15 -12
14 2 15 -1 6 -13 -11 -12 -14 -12 -21 2 -5 8 -14 13 -19 9 -5 -3 -16 -1 -24 6
-9 7 -15 8 -20 0 -10 -16 3 -28 29 -25 27 3 52 -18 41 -35 -3 -6 -10 -8 -14
-5 -5 2 -8 -5 -7 -17 1 -19 7 -22 41 -22 31 0 40 4 39 17 -1 9 3 14 9 10 5 -3
7 -2 4 4 -3 5 0 10 8 11 35 4 41 4 55 1 8 -2 15 3 15 11 0 17 -33 20 -53 6 -8
-6 -17 -5 -25 3 -9 10 -8 11 7 5 13 -5 17 -4 12 4 -3 6 -2 13 3 16 5 4 12 2
15 -3 3 -5 15 -7 26 -4 11 3 17 9 15 14 -3 4 -12 6 -19 3 -8 -3 -17 -1 -20 5
-9 14 -56 -28 -50 -44 3 -7 0 -16 -5 -20 -6 -3 -9 -9 -7 -13 2 -4 -11 -7 -29
-7 -18 0 -31 4 -28 8 3 5 11 6 18 3 9 -3 12 2 10 16 -3 12 0 27 6 34 12 15 3
37 -12 29 -5 -4 -9 -2 -9 2 0 5 9 14 19 20 16 10 20 9 25 -3 6 -16 26 -10 26
7 0 6 -4 8 -10 4 -5 -3 -15 6 -22 20 l-14 25 -27 -28z m23 -7 c-7 -8 -17 -15
-23 -15 -6 0 -2 7 9 15 25 19 30 19 14 0z"/>
<path d="M1503 840 c0 -25 3 -28 19 -19 10 5 18 14 18 19 0 5 -8 14 -18 19
-16 9 -19 6 -19 -19z"/>
<path d="M1678 859 c-10 -5 -18 -15 -18 -20 0 -6 4 -7 10 -4 5 3 7 0 4 -8 -2
-7 1 -14 9 -14 8 0 14 11 14 29 0 15 -1 28 -1 28 -1 0 -9 -5 -18 -11z"/>
<path d="M1560 850 c-7 -4 -14 -24 -15 -43 -3 -27 0 -34 11 -30 8 3 11 10 7
16 -3 6 -1 7 5 3 7 -4 12 -3 12 3 0 5 -6 14 -14 18 -12 7 -11 10 2 23 14 13
15 13 10 -1 -5 -12 1 -16 22 -16 21 0 27 4 22 16 -5 13 -4 14 10 1 13 -13 13
-16 -6 -33 -18 -16 -18 -18 -3 -13 10 3 16 2 13 -3 -3 -5 1 -12 10 -15 12 -5
14 -1 9 17 -5 17 -4 19 4 7 9 -13 12 -13 23 -1 10 10 10 12 1 7 -8 -4 -17 3
-25 18 -6 14 -14 26 -17 27 -30 6 -71 5 -81 -1z"/>
<path d="M1470 820 c-7 -16 -18 -35 -26 -41 -8 -6 -14 -14 -14 -18 0 -11 39
-11 46 0 4 6 16 1 30 -12 13 -12 24 -17 24 -11 0 6 -12 19 -26 28 -20 14 -27
15 -34 5 -5 -8 -10 -9 -14 -3 -8 13 20 23 41 15 17 -7 17 -6 0 20 -9 15 -13
27 -7 27 5 0 10 5 10 10 0 21 -18 9 -30 -20z"/>
<path d="M1700 841 c0 -5 5 -11 11 -13 6 -2 -4 -18 -22 -35 -22 -23 -29 -36
-23 -46 5 -7 2 -6 -6 4 -9 9 -26 21 -38 28 -13 7 -19 17 -16 26 4 8 1 15 -5
15 -6 0 -11 -8 -11 -18 0 -21 -46 -47 -55 -32 -4 6 -11 10 -17 10 -6 0 -3 -9
7 -20 14 -15 15 -23 6 -34 -9 -11 -3 -13 36 -11 27 1 47 6 46 12 -2 9 20 10
57 2 10 -3 15 4 15 18 0 29 12 38 30 23 9 -8 15 -8 15 -2 0 6 -5 14 -10 17 -8
5 -8 11 0 20 6 7 8 20 4 29 -7 17 -24 22 -24 7z m-95 -96 c1 -12 -4 -22 -10
-20 -24 5 -45 18 -45 28 0 5 9 2 20 -8 22 -20 28 -8 8 15 -10 11 -9 11 6 0 18
-14 19 -13 12 5 -4 11 -3 16 1 11 4 -4 8 -18 8 -31z m30 15 c3 -5 1 -10 -4
-10 -6 0 -11 5 -11 10 0 6 2 10 4 10 3 0 8 -4 11 -10z"/>
<path d="M1317 813 c5 -36 5 -67 -1 -122 l-5 -44 23 24 c22 23 26 37 26 77 0
46 -2 51 -15 46 -7 -3 -16 0 -20 6 -3 6 -3 10 2 9 19 -3 33 2 33 12 0 6 -6 9
-14 6 -7 -3 -18 -1 -23 4 -7 7 -9 1 -6 -18z m36 -57 c4 -10 1 -13 -9 -9 -7 3
-14 9 -14 14 0 14 17 10 23 -5z m-13 -36 c-12 -8 -12 -10 -1 -10 8 0 12 -3 8
-6 -9 -9 -28 6 -22 17 4 5 12 9 18 9 7 0 6 -4 -3 -10z"/>
<path d="M1510 800 c0 -5 7 -10 15 -10 8 0 15 5 15 10 0 6 -7 10 -15 10 -8 0
-15 -4 -15 -10z"/>
<path d="M1009 765 c-7 -33 -1 -50 19 -51 12 -1 19 3 16 8 -3 4 -10 5 -16 2
-6 -4 -6 0 1 13 10 20 6 33 -11 33 -4 0 -8 -2 -9 -5z"/>
<path d="M1690 761 c0 -6 5 -13 10 -16 6 -3 10 1 10 9 0 9 -4 16 -10 16 -5 0
-10 -4 -10 -9z"/>
<path d="M1220 710 c-11 -11 -20 -24 -20 -29 0 -16 19 -23 36 -13 11 6 13 11
5 16 -6 4 -11 12 -11 17 0 6 4 8 8 5 5 -3 9 1 9 9 0 19 -3 19 -27 -5z"/>
</g>
</svg>
